# xmcd
#
# Track frame offsets:
#	150
#	17128
#	37302
#	53313
#	69566
#	82216
#	97760
#	113356
#	132632
#	147619
#	164386
#	179610
#	196738
#	214476
#	230437
#	246422
#	265773
#	284164
#	296042
#
# Disc length: 4155 seconds
#
# Revision: 1
# Processed by: cddbd v1.5.1PL0 Copyright (c) Steve Scherf et al.
# Submitted via: audiograbber 1.83.01
#
DISCID=2c103913
DTITLE=Various Artist - The Best Of R&B: Hit Selection
DYEAR=2004
DGENRE=R&B
TTITLE0=Kelis (ft Andre 3000) - Millionaire
TTITLE1=Ice Cube (ft Mack 10 and Ms Toi) - You Can Do It [UK-G Remix]
TTITLE2=Khia - My Neck, My Back (Lick It) [Kardinal Beats Dirty Club Mix]
TTITLE3=Chingy - Balla Baby
TTITLE4=The 411 - Dumb
TTITLE5=Jamelia - DJ
TTITLE6=Jay Sean - Stolen
TTITLE7=Usher - Burn
TTITLE8=The Pirates (ft Enya, SHola Ama, Naila Boss and Ishani) - You Should Real
TTITLE8=ly Know
TTITLE9=Eamon - Fuck It (I Dont Want You Back)
TTITLE10=Timbaland and Magoo (ft Raje Shwari and Sebastian) - Indian Flute [Dirty E
TTITLE10=dit]
TTITLE11=Guerilla Black (ft JazzePha and Brooke Valentine) - Guerilla Nasty
TTITLE12=Houston - I Like That
TTITLE13=Beenie Man (ft Ms Thing) - Dude
TTITLE14=NERD - She Wants To Move
TTITLE15=Parkslope - La-Dee-Da-Dee (We Like To Party) [Hoodstar Rap Mix]
TTITLE16=Luniz - I Got 5 On It
TTITLE17=Black Moth Connection - Shake Ur Booty
TTITLE18=Kevin Mark Trail - Perspective
EXTD=
EXTT0=
EXTT1=
EXTT2=
EXTT3=
EXTT4=
EXTT5=
EXTT6=
EXTT7=
EXTT8=
EXTT9=
EXTT10=
EXTT11=
EXTT12=
EXTT13=
EXTT14=
EXTT15=
EXTT16=
EXTT17=
EXTT18=
PLAYORDER=
